<?xml version="1.0" encoding="UTF-8" standalone="no"?>
<svg
   xmlns:dc="http://purl.org/dc/elements/1.1/"
   xmlns:cc="http://creativecommons.org/ns#"
   xmlns:rdf="http://www.w3.org/1999/02/22-rdf-syntax-ns#"
   xmlns:svg="http://www.w3.org/2000/svg"
   xmlns="http://www.w3.org/2000/svg"
   xmlns:sodipodi="http://sodipodi.sourceforge.net/DTD/sodipodi-0.dtd"
   xmlns:inkscape="http://www.inkscape.org/namespaces/inkscape"
   viewBox="0 0 969.22 1300.06"
   version="1.1"
   id="svg112"
   sodipodi:docname="character-working-7.svg"
   inkscape:version="1.0.2 (e86c870879, 2021-01-15)">
  <metadata
     id="metadata116">
    <rdf:RDF>
      <cc:Work
         rdf:about="">
        <dc:format>image/svg+xml</dc:format>
        <dc:type
           rdf:resource="http://purl.org/dc/dcmitype/StillImage" />
      </cc:Work>
    </rdf:RDF>
  </metadata>
  <sodipodi:namedview
     pagecolor="#ffffff"
     bordercolor="#666666"
     borderopacity="1"
     objecttolerance="10"
     gridtolerance="10"
     guidetolerance="10"
     inkscape:pageopacity="0"
     inkscape:pageshadow="2"
     inkscape:window-width="1128"
     inkscape:window-height="694"
     id="namedview114"
     showgrid="false"
     inkscape:zoom="0.41151945"
     inkscape:cx="581.37583"
     inkscape:cy="680.69648"
     inkscape:window-x="0"
     inkscape:window-y="0"
     inkscape:window-maximized="1"
     inkscape:current-layer="Слой_1"
     inkscape:document-rotation="0" />
  <defs
     id="defs4">
    <style
       id="style2">.cls-1,.cls-11,.cls-17,.cls-19{fill:#fff;}.cls-1,.cls-16,.cls-17,.cls-19,.cls-2{stroke:#6562cf;}.cls-1,.cls-12,.cls-13,.cls-14,.cls-15,.cls-17,.cls-2,.cls-3{stroke-miterlimit:10;}.cls-1,.cls-15,.cls-2,.cls-3{stroke-width:5px;}.cls-12,.cls-13,.cls-14,.cls-15,.cls-2,.cls-3{fill:none;}.cls-15,.cls-3{stroke:#ffb000;}.cls-4{fill:#ffc0b7;}.cls-5{fill:#3c4564;}.cls-6{fill:#5654b7;}.cls-7{fill:#3f4d79;}.cls-8{fill:#ffcfc9;}.cls-9{fill:#6562cf;}.cls-10{fill:#8382d8;}.cls-12{stroke:#8382d8;}.cls-12,.cls-13,.cls-15{stroke-linecap:round;}.cls-12,.cls-16,.cls-17,.cls-19{stroke-width:6px;}.cls-13{stroke:#f7b3af;}.cls-13,.cls-14{stroke-width:4px;}.cls-14{stroke:#3f4d79;}.cls-16{fill:#d1d0ff;}.cls-16,.cls-19{stroke-linejoin:round;}.cls-18{fill:#e2e2ff;}</style>
  </defs>
  <g
     id="Layer_2"
     data-name="Layer 2"
     transform="matrix(-1,0,0,1,969.21109,0)">
    <g
       id="Слой_1"
       data-name="Слой 1"
       transform="matrix(-1,0,0,1,969.21109,0)">
      <g
         id="CHAIR">
        <ellipse
           class="cls-1"
           cx="204.28"
           cy="874.51001"
           rx="169.38"
           ry="32.25"
           id="ellipse6"
           style="stroke:#1a6d94;stroke-opacity:1" />
        <path
           class="cls-2"
           d="m 194.26,906.77 v 226.61 a 66.3,66.3 0 0 1 -37,59.45 L 97,1222.54 a 36.94,36.94 0 0 0 -20.6,33.13"
           id="path8"
           style="stroke:#1a6d94;stroke-opacity:1" />
        <circle
           class="cls-3"
           cx="76.949997"
           cy="1276.61"
           r="20.940001"
           id="circle10"
           style="stroke:#ff8659;stroke-opacity:1" />
        <circle
           class="cls-3"
           cx="156.22"
           cy="1276.61"
           r="20.940001"
           id="circle12"
           style="stroke:#ff8659;stroke-opacity:1" />
        <path
           class="cls-2"
           d="m 194.26,1106.77 v 71 a 45.91,45.91 0 0 1 -11.82,30.75 l -14.39,16 a 45.9,45.9 0 0 0 -11.83,30.75"
           id="path14"
           style="stroke:#1a6d94;stroke-opacity:1" />
        <path
           class="cls-2"
           d="m 215.64,906.77 v 226.61 a 66.29,66.29 0 0 0 37,59.45 l 60.25,29.71 a 36.93,36.93 0 0 1 20.61,33.13"
           id="path16"
           style="stroke:#1a6d94;stroke-opacity:1" />
        <circle
           class="cls-3"
           cx="332.95999"
           cy="1276.61"
           r="20.940001"
           id="circle18"
           style="stroke:#ff8659;stroke-opacity:1" />
        <circle
           class="cls-3"
           cx="253.67999"
           cy="1276.61"
           r="20.940001"
           id="circle20"
           style="stroke:#ff8659;stroke-opacity:1" />
        <path
           class="cls-2"
           d="m 215.64,1106.77 v 71 a 45.91,45.91 0 0 0 11.82,30.75 l 14.4,16 a 45.89,45.89 0 0 1 11.82,30.75"
           id="path22"
           style="stroke:#1a6d94;stroke-opacity:1" />
      </g>
      <g
         id="CHARACTER">
        <g
           id="LEGS">
          <g
             id="RIGHT">
            <path
               id="FOOT"
               class="cls-4"
               d="m 360.06,1153.84 c 0,0 1.18,39.42 -22.58,55.93 -22.4,15.56 -23.23,28.08 -23.23,28.08 0,0 37.33,36.25 46.52,40 9.19,3.75 42.66,15.3 60,15.3 0,0 11.73,-8.55 -15.13,-32 -36.44,-31.89 4.91,-89.18 4.91,-89.18 0,0 -37.98,-11.37 -50.49,-18.13 z" />
            <path
               id="PANT"
               class="cls-5"
               d="m 293.25,688 c 0,0 189.63,22.36 265.29,101.26 40.88,42.64 -120,299.67 -127.55,386 0,0 -58.37,-7.68 -96.2,-36.87 0,0 7,-238.93 93,-283.21 0,0 -163.67,13 -233.71,-22.7 -70.04,-35.7 0,-133.29 0,-133.29 0,0 60.92,11.88 99.17,-11.19 z"
               style="fill:#145471;fill-opacity:1" />
            <path
               id="SHOE"
               class="cls-6"
               d="m 343.48,1200.77 c 0,0 -31.47,12.39 -32.23,35.08 0,0 32.85,33.65 49.52,42 26.13,13.15 62,17.3 62,17.3 0,0 13,-16 -7.43,-31.51 -20.43,-15.51 -24.37,-43 -24.37,-43 0,0 -2.25,19.46 -20.43,23 -16.28,3.2 -21.54,-5 -21.54,-5 0,0 4.9,-35.11 -5.52,-37.87 z"
               style="fill:#2bb6f6;fill-opacity:1" />
          </g>
          <g
             id="LEFT">
            <path
               id="PANT-2"
               data-name="PANT"
               class="cls-7"
               d="m 81.85,702.51 c 0,0 -34.42,97.42 -22,124.62 23.12,50.8 206.88,65.94 343.08,41.07 0,0 -47.57,167.51 8.64,304.79 0,0 37.84,6.53 90.8,-1 0,0 -1.08,-165.39 22.7,-341.58 C 529.8,795 326.08,711.87 236.39,702.48 146.7,693.09 81.85,702.51 81.85,702.51 Z"
               style="fill:#165c7c;fill-opacity:1" />
            <path
               id="FOOT-2"
               data-name="FOOT"
               class="cls-8"
               d="m 425.05,1174.65 c 0,0 10.27,38.32 10.27,49.73 0,23.24 -17.84,51.34 -14.6,70.8 h 161.55 c 0,0 -9.78,-23.85 -49.13,-32.49 -44.32,-9.73 -52.45,-38.18 -51.34,-88 0,-0.04 -29.2,2.2 -56.75,-0.04 z" />
            <path
               id="SHOE-2"
               data-name="SHOE"
               class="cls-9"
               d="m 432.52,1242.73 c 0,0 -18.82,26.5 -11.8,52.45 h 164.07 c 0,0 -0.37,-23.2 -23.24,-26 -22.87,-2.8 -60,-21.61 -60,-21.61 0,0 2.75,27.57 -39.41,30.81 0,0.04 1.63,-34.6 -29.62,-35.65 z"
               style="fill:#2bb6f6;fill-opacity:1" />
          </g>
        </g>
        <g
           id="RIGHT_HAND"
           data-name="RIGHT HAND">
          <path
             class="cls-9"
             d="m 317.31,299.82 c -23.1,11.46 -37.08,15.18 -29.77,88.29 7.31,73.11 60.46,158.53 60.46,158.53 l 69.12,-68.14 c 0,0 -46.58,-135.5 -56.34,-150.5 -19.01,-29.11 -34.48,-32.64 -43.47,-28.18 z"
             id="path34"
             style="fill:#2bb6f6;fill-opacity:1" />
          <path
             class="cls-10"
             d="m 436,500.48 c 0,0 -14.16,-32 -21.14,-32.33 -6.98,-0.33 -56.4,36.38 -63.34,68.86 -2.23,10.48 -12.6,28 47.11,35.63 C 417.14,575 436,500.48 436,500.48 Z"
             id="path36"
             style="fill:#5fc6f6;fill-opacity:1" />
          <path
             class="cls-4"
             d="m 657,556.81 c 0,0 -4.42,2.88 -17.47,-0.22 -4.2,-1 -10.13,-8.38 -16.38,-12.39 -5.06,-3.25 -15,-2.69 -25.69,-1.42 -6.06,0.7 -11.78,-7.31 -15.61,-11.81 -38,11 -143.87,41.8 -185.94,38.31 -10.68,-0.88 19.89,-68.17 38.4,-72.56 14,-3.31 96.39,-0.36 148.62,6.31 a 356.47,356.47 0 0 1 54.88,12.4 c 6.86,4.32 19.19,41.38 19.19,41.38 z"
             id="path38" />
        </g>
        <g
           id="SHIRT">
          <path
             class="cls-11"
             d="m 293.25,688 c 0,0 -18.33,15.19 -56.85,14.45 v -0.06 C 232.06,628.85 223.02,490.7 213.59,439.39 194.7,336.7 143.2,248.15 142.4,246.78 v 0 l 98.72,5.22 c 0,0 51.16,36.17 62.33,187.48 C 314.62,590.79 293.25,688 293.25,688 Z"
             id="path41" />
          <path
             class="cls-9"
             d="m 241.11,252 c 9.36,3.7 70.53,34.68 90,46.21 19.47,11.53 31.24,101.74 21,174.4 -17.29,122.5 -15.85,170.41 1.28,225.89 0,0 -39.05,-8.17 -60.12,-9.86 0,0 -10.73,-84 4,-169.19 C 327.11,346.65 241.11,252 241.11,252 Z"
             id="path43"
             style="fill:#2bb6f6;fill-opacity:1" />
          <path
             class="cls-9"
             d="m 142.38,246.8 c 0,0 -97.6,32.28 -129.72,68 -13,14.41 61.26,192.41 54.77,244.29 -6.49,51.88 -36.75,166.43 -36.75,166.43 0,0 46.32,60.53 208.38,24.48 0,0 -12.37,-239.25 -25.49,-310.59 C 194.54,335.93 142.38,246.8 142.38,246.8 Z"
             id="path45"
             style="fill:#2bb6f6;fill-opacity:1" />
          <path
             class="cls-12"
             d="m 348.76,412.07 c -4.47,31.63 -8.71,106 -6.14,130.28"
             id="path47"
             style="stroke:#61c7f6;stroke-opacity:1" />
        </g>
        <g
           id="LEFT_HAND"
           data-name="LEFT HAND">
          <path
             class="cls-9"
             d="m 34.13,296.86 c -21.47,17.9 -40.2,16.46 -32.27,95.73 7.93,79.27 65.57,171.89 65.57,171.89 l 74.95,-73.89 c 0,0 -7.5192,-27.9204 -16.56506,-60.66646 C 114.34677,388.40868 100.42485,339.13769 96.26,329.17 85.3,302.88 55.6,279 34.13,296.86 Z"
             id="path50"
             style="fill:#2bb6f6;fill-opacity:1"
             sodipodi:nodetypes="csccscc" />
          <path
             class="cls-12"
             d="m 143.42,490.59 c 0,0 -6.16076,-29.81362 -14.32972,-62.31324 C 121.19308,396.85837 111.41908,362.92973 103.52,351"
             id="path52"
             sodipodi:nodetypes="csc"
             style="stroke:#60c6f6;stroke-opacity:1" />
          <path
             class="cls-10"
             d="m 171.45,505.76 c 0,0 -24,-26.08 -31.59,-26.39 -7.59,-0.31 -59,36.51 -70,74.2 -3.25,11.16 -21.2,30.07 49.77,48.28 39.47,10.15 51.82,-96.09 51.82,-96.09 z"
             id="path54"
             style="fill:#63c8f6;fill-opacity:1" />
          <path
             class="cls-8"
             d="m 477.08,554 c 0,0 -3.68,5.14 -9.05,1.61 -3.35,-2.2 -9.42,-8 -14,-10.87 a 226.89,226.89 0 0 1 11.29,20 50.62,50.62 0 0 1 -18.78,4.3 c -5.36,0.23 -13.59,-9 -21.84,-13.16 -6.67,-3.35 -18.85,-1.36 -31.91,1.6 -13.06,2.96 -27.13,-16.37 -27.13,-16.37 V 541 c -24.78,8.35 -183.94,53 -243.18,49.88 -13.29,-0.7 22.13,-79.78 44.94,-85.92 19.26,-5.19 145.34,-3.86 206.22,4.78 23.49,2.65 59.24,12.26 65.94,13.78 6.11,0.83 20.18,10.85 24.09,14.09 4.08,3.39 13.41,16.39 13.41,16.39 z"
             id="path56" />
          <path
             class="cls-13"
             d="m 458.53,564.93 c 0,0 -16.56,-23.77 -21.12,-25.4 -8,-2.88 -18.49,-6.69 -18.49,-6.69"
             id="path58" />
          <path
             class="cls-13"
             d="m 450.6,567.17 c 0,0 -15,-19.82 -19.5,-21.45 -8,-2.88 -18.5,-6.69 -18.5,-6.69"
             id="path60" />
        </g>
        <g
           id="HEAD">
          <g
             id="NECK">
            <path
               class="cls-8"
               d="m 242.79,239.09 -22.61,63.58 c 0,0 -61.48,6.77 -77.55,-56.1 l 21.66,-62 z"
               id="path63" />
            <path
               class="cls-4"
               d="m 242.8,239.09 -10.22,28.72 c -13.6,6.19 -31,6 -48,-16.59 -15.41,-20.52 -18.73,-50.63 -21.64,-61.8 l 1.31,-4.81 z"
               id="path65" />
          </g>
          <path
             id="HEAD-2"
             data-name="HEAD"
             class="cls-8"
             d="m 164.29,184.61 c 0,0 18.86,43.31 41.91,50.3 22,6.66 48.91,4.89 51.7,0 2.79,-4.89 25.62,-62.62 19.56,-100.76 -4.19,-26.39 -15.37,-30 -36.33,-27.95 -20.96,2.05 -28.33,4.36 -53.95,-3.49 -7.19,-2.2 5.16,38.14 -16.49,53.51 0,0 -16.24,-5.46 -19.74,0.13 -3.5,5.59 13.34,28.26 13.34,28.26 z" />
          <g
             id="HAIR">
            <path
               class="cls-7"
               d="m 161.35,192.6 c 0,0 -55.35,-33.82 -52.67,-79.6 1.17,-19.6 42.68,-72.3 68.11,-74.48 25.43,-2.18 64.67,10.9 77,21.8 12.33,10.9 29.21,22.62 24.81,64.36 a 26.45,26.45 0 0 1 -1.62,6.66 c -4.54,-23.84 -15.65,-27.16 -35.84,-25.14 -21,2.1 -28.34,4.35 -54,-3.49 -7.19,-2.21 5.17,38.14 -16.49,53.51 0,0 -16.24,-5.46 -19.73,0.12 -3.49,5.58 13.33,28.26 13.33,28.26 z"
               id="path69" />
            <path
               class="cls-7"
               d="m 157.09,47.14 c 0,0 5.17,-40.57 -21.72,-39.14 -26.89,1.43 -43.24,26.89 -45.77,43.52 -3.24,21.37 35.55,27.67 35.55,27.67 z"
               id="path71" />
            <path
               class="cls-14"
               d="m 98.78,78.86 c 9.11,10.76 26.37,0.33 26.37,0.33"
               id="path73" />
            <path
               class="cls-14"
               d="m 164.51,45.57 c 0,0 5.93,-45.06 -24.92,-43.57 -30.85,1.49 -50.93,38.39 -46.76,49.82 4.17,11.43 35,27.37 35,27.37 z"
               id="path75" />
            <path
               class="cls-14"
               d="m 262,106 c -5.47,-2.18 -12.56,3 -20.87,5 -27,6.5 -45.54,3 -55.55,-9.89"
               id="path77" />
          </g>
          <g
             id="GLASSES">
            <circle
               class="cls-3"
               cx="217.05"
               cy="162.47"
               r="21.049999"
               id="circle80"
               style="stroke:#ff8659;stroke-opacity:1" />
            <ellipse
               class="cls-3"
               cx="271.35999"
               cy="162.47"
               rx="19.709999"
               ry="21.049999"
               id="ellipse82"
               style="stroke:#ff8659;stroke-opacity:1" />
            <line
               class="cls-3"
               x1="237.95"
               y1="161.02"
               x2="250.82001"
               y2="161.02"
               id="line84"
               style="stroke:#ff8659;stroke-opacity:1" />
          </g>
        </g>
      </g>
      <g
         id="COMPUTER">
        <polyline
           class="cls-15"
           points="690.61 1297.56 780.61 611.16 796.83 611.16 886.83 1297.56"
           id="polyline89"
           style="stroke:#ff8659;stroke-opacity:1" />
        <path
           class="cls-16"
           d="m 849.47,580.33 h -45 l -7,-9.88 c -6.85,-9.71 -19.53,-15.69 -33.26,-15.69 h -66.07 c -13.73,0 -26.41,6 -33.26,15.69 l -7,9.88 h -43.25 l 17.29,-21.74 c 7.73,-9.72 22,-15.7 37.48,-15.7 h 125.29 c 15.47,0 29.77,6 37.49,15.7 z"
           id="path91" />
        <path
           class="cls-17"
           d="m 850.3,580.33 h -18.25 l -7,-9.88 c -6.86,-9.71 -19.54,-15.69 -33.26,-15.69 H 699 c -13.72,0 -26.4,6 -33.26,15.69 l -7,9.88 h -43.28 l 17.29,-21.74 c 7.73,-9.72 22,-15.7 37.49,-15.7 h 125.29 c 15.47,0 29.76,6 37.48,15.7 z"
           id="path93"
           style="stroke:#1a6d94;stroke-opacity:1" />
        <path
           class="cls-17"
           d="M 875.56,481.65 H 451.92 c -11.25,0 -19.36,-11.18 -16.24,-22.39 l 63.19,-226.64 a 28,28 0 0 1 26.79,-20.88 H 949.3 c 11.25,0 19.37,11.18 16.24,22.38 l -63.19,226.65 a 28.05,28.05 0 0 1 -26.79,20.88 z"
           id="path95"
           style="stroke:#1a6d94;stroke-opacity:1" />
        <path
           class="cls-18"
           d="m 628.93,412.68 -10.69,65.56 h 37 l -16.37,-65.67 c -0.36,-1.47 -9.7,-1.38 -9.94,0.11 z"
           id="path97" />
        <path
           class="cls-16"
           d="m 779.33,542.2 h -105 L 648.4,438 c -2.86,-11.45 -6.56,-15.91 -15.42,-18.43 v -6 H 722.1 A 32.23,32.23 0 0 1 753.37,438 Z"
           id="path99"
           style="stroke:#1a6d94;stroke-opacity:1" />
        <path
           class="cls-17"
           d="m 789.75,542.2 h -105 L 658.82,438 c -3.58,-14.35 -8.46,-24.43 -23.26,-24.43 h 97 A 32.25,32.25 0 0 1 763.79,438 Z"
           id="path101"
           style="stroke:#1a6d94;stroke-opacity:1" />
        <polygon
           class="cls-19"
           points="378.59,580.33 518.16,580.33 518.16,562.43 378.59,570.44 "
           id="polygon103"
           style="stroke:#1a6d94;stroke-opacity:1" />
        <rect
           class="cls-16"
           x="518.15997"
           y="562.42999"
           width="87.279999"
           height="17.52"
           id="rect105"
           style="stroke:#1a6d94;stroke-opacity:1" />
        <polygon
           class="cls-19"
           points="868.96,580.33 226.74,580.33 228.19,609.68 868.96,609.68 "
           id="polygon107"
           style="stroke:#1a6d94;stroke-opacity:1" />
      </g>
    </g>
  </g>
</svg>
